<svg width="10" height="13" viewBox="0 0 10 13" fill="none" xmlns="http://www.w3.org/2000/svg">
<path d="M0.8 4.715C0.8 2.565 2.5775 0.8 4.8 0.8C7.0225 0.8 8.8 2.565 8.8 4.715C8.8 5.9725 8.1525 7.45 7.265 8.855C6.415 10.2 5.415 11.3675 4.8 12.04C4.185 11.3675 3.185 10.1975 2.335 8.855C1.4475 7.45 0.8 5.9725 0.8 4.715ZM4.8 0C2.15 0 0 2.11 0 4.715C0 7.6975 3.005 11.2725 4.26 12.635C4.555 12.955 5.045 12.955 5.34 12.635C6.595 11.2725 9.6 7.6975 9.6 4.715C9.6 2.11 7.45 0 4.8 0ZM6 4.8C6 5.4625 5.4625 6 4.8 6C4.1375 6 3.6 5.4625 3.6 4.8C3.6 4.1375 4.1375 3.6 4.8 3.6C5.4625 3.6 6 4.1375 6 4.8ZM4.8 2.8C3.695 2.8 2.8 3.695 2.8 4.8C2.8 5.905 3.695 6.8 4.8 6.8C5.905 6.8 6.8 5.905 6.8 4.8C6.8 3.695 5.905 2.8 4.8 2.8Z" fill="#1D1D1F"/>
</svg>
