<svg width="16" height="16" viewBox="0 0 16 16" fill="none" xmlns="http://www.w3.org/2000/svg">
<path d="M7.88248 2.5174C7.72748 2.3624 7.47248 2.3624 7.31748 2.5174C7.16248 2.6724 7.16248 2.9274 7.31748 3.0824L7.83498 3.5999H3.99998C2.67498 3.5999 1.59998 4.6749 1.59998 5.9999C1.59998 7.3249 2.67498 8.3999 3.99998 8.3999H12C12.8825 8.3999 13.6 9.1174 13.6 9.9999C13.6 10.6324 13.2325 11.1799 12.7 11.4399C12.4725 10.8324 11.8875 10.3999 11.2 10.3999C10.3175 10.3999 9.59998 11.1174 9.59998 11.9999C9.59998 12.8824 10.3175 13.5999 11.2 13.5999C11.99 13.5999 12.6475 13.0249 12.7775 12.2724C13.7225 11.9499 14.4 11.0549 14.4 9.9999C14.4 8.6749 13.325 7.5999 12 7.5999H3.99998C3.11748 7.5999 2.39998 6.8824 2.39998 5.9999C2.39998 5.1174 3.11748 4.3999 3.99998 4.3999H7.83498L7.31748 4.9174C7.16248 5.0724 7.16248 5.3274 7.31748 5.4824C7.47248 5.6374 7.72748 5.6374 7.88248 5.4824L9.08248 4.2824C9.23748 4.1274 9.23748 3.8724 9.08248 3.7174L7.88248 2.5174ZM11.2 3.9999C11.2 3.5574 11.5575 3.1999 12 3.1999C12.4425 3.1999 12.8 3.5574 12.8 3.9999C12.8 4.4424 12.4425 4.7999 12 4.7999C11.5575 4.7999 11.2 4.4424 11.2 3.9999ZM13.6 3.9999C13.6 3.1174 12.8825 2.3999 12 2.3999C11.1175 2.3999 10.4 3.1174 10.4 3.9999C10.4 4.8824 11.1175 5.5999 12 5.5999C12.8825 5.5999 13.6 4.8824 13.6 3.9999ZM3.99998 11.1999C4.44248 11.1999 4.79998 11.5574 4.79998 11.9999C4.79998 12.4424 4.44248 12.7999 3.99998 12.7999C3.55748 12.7999 3.19998 12.4424 3.19998 11.9999C3.19998 11.5574 3.55748 11.1999 3.99998 11.1999ZM5.54998 11.5999C5.37248 10.9099 4.74498 10.3999 3.99998 10.3999C3.11748 10.3999 2.39998 11.1174 2.39998 11.9999C2.39998 12.8824 3.11748 13.5999 3.99998 13.5999C4.74498 13.5999 5.37248 13.0899 5.54998 12.3999H7.03498L6.51748 12.9174C6.36248 13.0724 6.36248 13.3274 6.51748 13.4824C6.67248 13.6374 6.92748 13.6374 7.08248 13.4824L8.28248 12.2824C8.43748 12.1274 8.43748 11.8724 8.28248 11.7174L7.08248 10.5174C6.92748 10.3624 6.67248 10.3624 6.51748 10.5174C6.36248 10.6724 6.36248 10.9274 6.51748 11.0824L7.03498 11.5999H5.54998ZM11.2 11.1999C11.6425 11.1999 12 11.5574 12 11.9999C12 12.4424 11.6425 12.7999 11.2 12.7999C10.7575 12.7999 10.4 12.4424 10.4 11.9999C10.4 11.5574 10.7575 11.1999 11.2 11.1999Z" fill="#1D1D1F"/>
</svg>
