<svg width="16" height="16" viewBox="0 0 16 16" fill="none" xmlns="http://www.w3.org/2000/svg">
<path d="M11.2275 12.0776L3.92248 4.7726C3.21998 5.6601 2.79998 6.7801 2.79998 8.0001C2.79998 10.8726 5.12748 13.2001 7.99998 13.2001C9.21998 13.2001 10.3425 12.7801 11.2275 12.0776ZM12.075 11.2301C12.7775 10.3426 13.1975 9.2226 13.1975 8.0026C13.1975 5.1301 10.87 2.8026 7.99748 2.8026C6.77748 2.8026 5.65498 3.2226 4.76998 3.9251L12.0775 11.2276L12.075 11.2301ZM1.59998 8.0001C1.59998 4.4651 4.46498 1.6001 7.99998 1.6001C11.535 1.6001 14.4 4.4651 14.4 8.0001C14.4 11.5351 11.535 14.4001 7.99998 14.4001C4.46498 14.4001 1.59998 11.5351 1.59998 8.0001Z" fill="white"/>
</svg>
