<svg width="16" height="16" viewBox="0 0 16 16" fill="none" xmlns="http://www.w3.org/2000/svg">
<path d="M5.40002 1.6001C5.73252 1.6001 6.00002 1.8676 6.00002 2.2001V3.2001H10V2.2001C10 1.8676 10.2675 1.6001 10.6 1.6001C10.9325 1.6001 11.2 1.8676 11.2 2.2001V3.2001H12C12.8825 3.2001 13.6 3.9176 13.6 4.8001V12.0001C13.6 12.8826 12.8825 13.6001 12 13.6001H4.00002C3.11752 13.6001 2.40002 12.8826 2.40002 12.0001V4.8001C2.40002 3.9176 3.11752 3.2001 4.00002 3.2001H4.80002V2.2001C4.80002 1.8676 5.06752 1.6001 5.40002 1.6001ZM5.40002 4.4001H4.00002C3.78002 4.4001 3.60002 4.5801 3.60002 4.8001V6.0001H12.4V4.8001C12.4 4.5801 12.22 4.4001 12 4.4001H5.40002ZM3.60002 7.2001V12.0001C3.60002 12.2201 3.78002 12.4001 4.00002 12.4001H12C12.22 12.4001 12.4 12.2201 12.4 12.0001V7.2001H3.60002Z" fill="#1D1D1F"/>
</svg>
