<svg width="12" height="14" viewBox="0 0 12 14" fill="none" xmlns="http://www.w3.org/2000/svg">
<path d="M3 0C3.3325 0 3.6 0.2675 3.6 0.6V3.2H7.6V0.6C7.6 0.2675 7.8675 0 8.2 0C8.5325 0 8.8 0.2675 8.8 0.6V3.2H10.6C10.9325 3.2 11.2 3.4675 11.2 3.8C11.2 4.1325 10.9325 4.4 10.6 4.4H10.4V6.4C10.4 8.8475 8.5675 10.8675 6.2 11.1625V13C6.2 13.3325 5.9325 13.6 5.6 13.6C5.2675 13.6 5 13.3325 5 13V11.1625C2.6325 10.8675 0.8 8.8475 0.8 6.4V4.4H0.6C0.2675 4.4 0 4.1325 0 3.8C0 3.4675 0.2675 3.2 0.6 3.2H2.4V0.6C2.4 0.2675 2.6675 0 3 0ZM2 4.4V6.4C2 8.3875 3.6125 10 5.6 10C7.5875 10 9.2 8.3875 9.2 6.4V4.4H2Z" fill="#05A53F"/>
</svg>
