<svg width="16" height="16" viewBox="0 0 16 16" fill="none" xmlns="http://www.w3.org/2000/svg">
<path d="M13.2 8.0001C13.2 10.8726 10.8725 13.2001 7.99998 13.2001C5.12748 13.2001 2.79998 10.8726 2.79998 8.0001C2.79998 5.1276 5.12748 2.8001 7.99998 2.8001C10.8725 2.8001 13.2 5.1276 13.2 8.0001ZM1.59998 8.0001C1.59998 11.5351 4.46498 14.4001 7.99998 14.4001C11.535 14.4001 14.4 11.5351 14.4 8.0001C14.4 4.4651 11.535 1.6001 7.99998 1.6001C4.46498 1.6001 1.59998 4.4651 1.59998 8.0001ZM7.39998 4.6001V8.0001C7.39998 8.2001 7.49998 8.3876 7.66748 8.5001L10.0675 10.1001C10.3425 10.2851 10.715 10.2101 10.9 9.9326C11.085 9.6551 11.01 9.2851 10.7325 9.1001L8.59998 7.6801V4.6001C8.59998 4.2676 8.33248 4.0001 7.99998 4.0001C7.66748 4.0001 7.39998 4.2676 7.39998 4.6001Z" fill="white"/>
</svg>
