<svg width="16" height="16" viewBox="0 0 16 16" fill="none" xmlns="http://www.w3.org/2000/svg">
<path d="M12.8 12.0001C12.8 12.0601 12.775 12.1851 12.59 12.3726C12.4025 12.5626 12.0925 12.7701 11.645 12.9626C10.7525 13.3451 9.46502 13.6001 8.00002 13.6001C6.53502 13.6001 5.24752 13.3451 4.35502 12.9626C3.90752 12.7701 3.59752 12.5626 3.41002 12.3726C3.22502 12.1851 3.20002 12.0601 3.20002 12.0001V9.8876C3.63002 10.1101 4.15252 10.2951 4.73002 10.4351C5.66752 10.6651 6.79252 10.7976 8.00002 10.7976C9.20752 10.7976 10.3325 10.6651 11.27 10.4351C11.8475 10.2926 12.37 10.1101 12.8 9.8876V12.0001ZM12.8 6.6876V8.9526C12.4375 9.2176 11.8525 9.4676 11.0775 9.6601C10.21 9.8726 9.15002 10.0001 8.00002 10.0001C6.85002 10.0001 5.78752 9.8726 4.92252 9.6601C4.14752 9.4701 3.56252 9.2176 3.20002 8.9526V6.6876C3.63002 6.9101 4.15252 7.0951 4.73002 7.2351C5.66752 7.4651 6.79252 7.5976 8.00002 7.5976C9.20752 7.5976 10.3325 7.4651 11.27 7.2351C11.8475 7.0926 12.37 6.9101 12.8 6.6876ZM12.8 5.7526C12.4375 6.0176 11.8525 6.2676 11.0775 6.4601C10.21 6.6726 9.15002 6.8001 8.00002 6.8001C6.85002 6.8001 5.78752 6.6726 4.92252 6.4601C4.14752 6.2701 3.56252 6.0176 3.20002 5.7526V4.0001C3.20002 3.9401 3.22502 3.8151 3.41002 3.6276C3.59752 3.4376 3.90752 3.2301 4.35502 3.0376C5.24752 2.6551 6.53502 2.4001 8.00002 2.4001C9.46502 2.4001 10.7525 2.6551 11.645 3.0376C12.0925 3.2301 12.4025 3.4376 12.59 3.6276C12.775 3.8151 12.8 3.9401 12.8 4.0001V5.7526ZM13.6 12.0001V4.0001C13.6 2.6751 11.0925 1.6001 8.00002 1.6001C4.90752 1.6001 2.40002 2.6751 2.40002 4.0001V12.0001C2.40002 13.3251 4.90752 14.4001 8.00002 14.4001C11.0925 14.4001 13.6 13.3251 13.6 12.0001Z" fill="white"/>
</svg>
