<svg width="24" height="24" viewBox="0 0 24 24" fill="none" xmlns="http://www.w3.org/2000/svg">
<path d="M12 18.0001C12.6638 18.0001 13.2 18.5363 13.2 19.2001C13.2 19.8638 12.6638 20.4001 12 20.4001C11.3363 20.4001 10.8 19.8638 10.8 19.2001C10.8 18.5363 11.3363 18.0001 12 18.0001ZM12 10.8001C12.6638 10.8001 13.2 11.3363 13.2 12.0001C13.2 12.6638 12.6638 13.2001 12 13.2001C11.3363 13.2001 10.8 12.6638 10.8 12.0001C10.8 11.3363 11.3363 10.8001 12 10.8001ZM10.8 4.8001C10.8 4.13635 11.3363 3.6001 12 3.6001C12.6638 3.6001 13.2 4.13635 13.2 4.8001C13.2 5.46385 12.6638 6.0001 12 6.0001C11.3363 6.0001 10.8 5.46385 10.8 4.8001Z" fill="black"/>
</svg>
