<svg width="16" height="16" viewBox="0 0 16 16" fill="none" xmlns="http://www.w3.org/2000/svg">
<path d="M8 2.8001C8.22 2.8001 8.4 2.9801 8.4 3.2001V6.4001H3.6V3.2001C3.6 2.9801 3.78 2.8001 4 2.8001H8ZM8.4 7.6001V13.2001H3.6V7.6001H8.4ZM2.4 3.2001V13.2351C2.1675 13.3176 2 13.5401 2 13.8001C2 14.1326 2.2675 14.4001 2.6 14.4001H9.4C9.7325 14.4001 10 14.1326 10 13.8001C10 13.5376 9.8325 13.3176 9.6 13.2351V9.2001H9.8C10.3525 9.2001 10.8 9.6476 10.8 10.2001V11.0001C10.8 11.9951 11.605 12.8001 12.6 12.8001C13.595 12.8001 14.4 11.9951 14.4 11.0001V5.5101C14.4 5.1626 14.27 4.8251 14.035 4.5676L12.245 2.5976C12.0225 2.3526 11.6425 2.3351 11.3975 2.5576C11.1525 2.7801 11.135 3.1601 11.3575 3.4051L12.0025 4.1126V5.6001C12.0025 6.3451 12.5125 6.9726 13.2025 7.1501V11.0001C13.2025 11.3326 12.935 11.6001 12.6025 11.6001C12.27 11.6001 12.0025 11.3326 12.0025 11.0001V10.2001C12.0025 8.9851 11.0175 8.0001 9.8025 8.0001H9.6025V3.2001C9.6025 2.3176 8.885 1.6001 8.0025 1.6001H4C3.1175 1.6001 2.4 2.3176 2.4 3.2001Z" fill="#1D1D1F"/>
</svg>
