<svg width="16" height="16" viewBox="0 0 16 16" fill="none" xmlns="http://www.w3.org/2000/svg">
<g clip-path="url(#clip0_3_2333)">
<path d="M1.48252 0.919961C1.32752 0.764961 1.07252 0.764961 0.91752 0.919961C0.76252 1.07496 0.76252 1.32996 0.91752 1.48496L14.5175 15.085C14.6725 15.24 14.9275 15.24 15.0825 15.085C15.2375 14.93 15.2375 14.675 15.0825 14.52L13.3525 12.79C13.9425 12.715 14.4 12.21 14.4 11.6V5.52746C14.4 5.07996 14.2125 4.64996 13.88 4.34746L11.87 2.50496C11.7075 2.35496 11.455 2.36746 11.305 2.52996C11.155 2.69246 11.1675 2.94496 11.33 3.09496L12 3.70996V5.59996C12 6.48246 12.7175 7.19996 13.6 7.19996V11.6C13.6 11.82 13.42 12 13.2 12H12.5625L9.60002 9.03746V3.19996C9.60002 2.31746 8.88252 1.59996 8.00002 1.59996H4.00002C3.49752 1.59996 3.05002 1.83246 2.75752 2.19246L1.48252 0.919961ZM3.32752 2.76496C3.47002 2.54496 3.71752 2.39996 4.00002 2.39996H8.00002C8.44252 2.39996 8.80002 2.75746 8.80002 3.19996V8.23746L3.32752 2.76496ZM2.40002 13.6C2.18002 13.6 2.00002 13.78 2.00002 14C2.00002 14.22 2.18002 14.4 2.40002 14.4H9.60002C9.82002 14.4 10 14.22 10 14C10 13.78 9.82002 13.6 9.60002 13.6V11.8625L8.80002 11.0625V13.6H3.20002V5.46246L2.40002 4.66246V13.6ZM12.8 4.44246L13.34 4.93746C13.505 5.08996 13.6 5.30246 13.6 5.52746V6.39996C13.1575 6.39996 12.8 6.04246 12.8 5.59996V4.44246Z" fill="#1D1D1F"/>
</g>
<defs>
<clipPath id="clip0_3_2333">
<rect width="16" height="16" fill="white"/>
</clipPath>
</defs>
</svg>
