<svg width="16" height="16" viewBox="0 0 16 16" fill="none" xmlns="http://www.w3.org/2000/svg">
<path d="M7.99998 2.4001C11.0925 2.4001 13.6 4.9076 13.6 8.0001C13.6 11.0926 11.0925 13.6001 7.99998 13.6001C4.90748 13.6001 2.39998 11.0926 2.39998 8.0001C2.39998 4.9076 4.90748 2.4001 7.99998 2.4001ZM7.99998 14.4001C11.535 14.4001 14.4 11.5351 14.4 8.0001C14.4 4.4651 11.535 1.6001 7.99998 1.6001C4.46498 1.6001 1.59998 4.4651 1.59998 8.0001C1.59998 11.5351 4.46498 14.4001 7.99998 14.4001ZM7.99998 9.6001C8.44248 9.6001 8.79998 9.9576 8.79998 10.4001C8.79998 10.8426 8.44248 11.2001 7.99998 11.2001C7.55748 11.2001 7.19998 10.8426 7.19998 10.4001C7.19998 9.9576 7.55748 9.6001 7.99998 9.6001ZM7.99998 12.0001C8.88248 12.0001 9.59998 11.2826 9.59998 10.4001C9.59998 9.9351 9.40248 9.5176 9.08748 9.2251L11.1525 5.3901C11.2575 5.1951 11.185 4.9526 10.99 4.8476C10.795 4.7426 10.5525 4.8151 10.4475 5.0101L8.38248 8.8451C8.25998 8.8151 8.13248 8.8001 7.99998 8.8001C7.11748 8.8001 6.39998 9.5176 6.39998 10.4001C6.39998 11.2826 7.11748 12.0001 7.99998 12.0001Z" fill="white"/>
</svg>
