<svg width="24" height="24" viewBox="0 0 24 24" fill="none" xmlns="http://www.w3.org/2000/svg">
<path d="M11.6898 12.7481L18.9717 5.46972L14.1727 18.8593L11.6898 12.7481ZM17.7394 4.24096L10.461 11.5193L4.34981 9.0364L17.7394 4.24096ZM2.54109 10.1782L10.0007 13.2084L13.0309 20.668C13.223 21.1428 13.687 21.4545 14.2017 21.4545C14.7345 21.4545 15.2093 21.1211 15.3906 20.6172L21.8425 2.60985C21.9694 2.25464 21.8787 1.86317 21.6141 1.59494C21.3495 1.32672 20.9544 1.23973 20.5992 1.36659L2.58822 7.81851C2.08439 7.99974 1.75092 8.47458 1.75092 9.0074C1.75092 9.52211 2.06264 9.98607 2.53747 10.1782H2.54109Z" fill="white"/>
</svg>
