<svg width="16" height="16" viewBox="0 0 16 16" fill="none" xmlns="http://www.w3.org/2000/svg">
<path d="M5.21 2.66754C5.125 2.46754 4.905 2.36004 4.695 2.41504L4.5275 2.46004C3.1975 2.82504 2.1525 4.07754 2.455 5.53504C3.29 9.55004 6.4525 12.71 10.4675 13.5475C11.9225 13.85 13.1775 12.805 13.54 11.4725L13.585 11.305C13.6425 11.095 13.535 10.875 13.3325 10.79L11 9.81754C10.8225 9.74504 10.62 9.79504 10.4975 9.94254L9.5825 11.06C9.465 11.2025 9.2675 11.2475 9.1025 11.1675C7.2275 10.2775 5.7275 8.72754 4.9 6.81754C4.83 6.65254 4.875 6.46254 5.015 6.35004L6.055 5.49754C6.2025 5.37754 6.255 5.17254 6.18 4.99504L5.21 2.66754ZM4.485 1.64504C5.0825 1.48254 5.71 1.78754 5.9475 2.36004L6.92 4.69254C7.13 5.19504 6.985 5.77754 6.5625 6.12254L5.76 6.78004C6.485 8.29254 7.6875 9.53504 9.1675 10.3125L9.88 9.44004C10.225 9.01754 10.805 8.87254 11.31 9.08254L13.6425 10.055C14.215 10.2925 14.52 10.92 14.3575 11.5175L14.3125 11.685C13.87 13.3075 12.28 14.74 10.305 14.33C5.9775 13.43 2.5725 10.025 1.6725 5.69754C1.26 3.72004 2.6925 2.13254 4.3175 1.69004L4.485 1.64504Z" fill="#1D1D1F"/>
</svg>
