<svg width="16" height="16" viewBox="0 0 16 16" fill="none" xmlns="http://www.w3.org/2000/svg">
<g clip-path="url(#clip0_3_3173)">
<path d="M5.40002 0.800049C5.73252 0.800049 6.00002 1.06755 6.00002 1.40005V4.00005H10V1.40005C10 1.06755 10.2675 0.800049 10.6 0.800049C10.9325 0.800049 11.2 1.06755 11.2 1.40005V4.00005H13C13.3325 4.00005 13.6 4.26755 13.6 4.60005C13.6 4.93255 13.3325 5.20005 13 5.20005H12.8V7.20005C12.8 9.64755 10.9675 11.6675 8.60002 11.9625V13.8C8.60002 14.1325 8.33252 14.4 8.00002 14.4C7.66752 14.4 7.40002 14.1325 7.40002 13.8V11.9625C5.03252 11.6675 3.20002 9.64755 3.20002 7.20005V5.20005H3.00002C2.66752 5.20005 2.40002 4.93255 2.40002 4.60005C2.40002 4.26755 2.66752 4.00005 3.00002 4.00005H4.80002V1.40005C4.80002 1.06755 5.06752 0.800049 5.40002 0.800049ZM4.40002 5.20005V7.20005C4.40002 9.18755 6.01252 10.8 8.00002 10.8C9.98752 10.8 11.6 9.18755 11.6 7.20005V5.20005H4.40002Z" fill="#1D1D1F"/>
</g>
<defs>
<clipPath id="clip0_3_3173">
<rect width="16" height="16" fill="white"/>
</clipPath>
</defs>
</svg>
