<svg width="14" height="14" viewBox="0 0 14 14" fill="none" xmlns="http://www.w3.org/2000/svg">
<path d="M4.95341 4.52329C4.95341 2.02471 6.97812 0 9.47671 0C10.236 0 10.9495 0.185778 11.5795 0.516948C11.7007 0.581566 11.7841 0.697341 11.8057 0.834655C11.8272 0.97197 11.7814 1.10659 11.6845 1.20352L9.264 3.62402V4.73869H10.3787L12.7992 2.31819C12.8961 2.22126 13.0334 2.17549 13.168 2.19703C13.3027 2.21857 13.4211 2.30203 13.4857 2.42319C13.8169 3.05053 14.0027 3.76672 14.0027 4.52599C14.0027 7.02457 11.978 9.04928 9.4794 9.04928C8.9463 9.04928 8.43473 8.95774 7.95817 8.78811L3.30833 13.4326C2.55176 14.1891 1.32401 14.1891 0.567431 13.4326C-0.189144 12.676 -0.189144 11.4482 0.567431 10.6917L5.21458 6.04452C5.04495 5.56796 4.95341 5.0564 4.95341 4.52329ZM9.47671 0.86158C7.45469 0.86158 5.81499 2.50127 5.81499 4.52329C5.81499 5.04024 5.92269 5.53296 6.11385 5.97721C6.18386 6.13876 6.14885 6.32723 6.02231 6.45377L1.17592 11.3002C0.755902 11.7202 0.755902 12.4014 1.17592 12.8241C1.59594 13.2468 2.27713 13.2441 2.69984 12.8241L7.54623 7.975C7.67008 7.85115 7.85855 7.81345 8.02279 7.88346C8.46704 8.07731 8.95976 8.18232 9.47671 8.18232C11.4987 8.18232 13.1384 6.54262 13.1384 4.5206C13.1384 4.11943 13.0738 3.73441 12.9553 3.37362L10.8579 5.47103C10.7772 5.55181 10.6668 5.59758 10.5537 5.59758H8.83052C8.59359 5.59758 8.39973 5.40372 8.39973 5.16679V3.44363C8.39973 3.33054 8.4455 3.22015 8.52628 3.13938L10.6237 1.04197C10.2629 0.926198 9.87788 0.86158 9.47671 0.86158Z" fill="#3D83F5"/>
</svg>
