<svg width="20" height="20" viewBox="0 0 20 20" fill="none" xmlns="http://www.w3.org/2000/svg">
<path d="M2.9486 3.93169C2.4049 3.93169 1.96564 4.37095 1.96564 4.91465V13.7613C1.96564 14.305 2.4049 14.7442 2.9486 14.7442H2.96089C3.08376 13.365 4.2418 12.2868 5.65174 12.2868C7.06167 12.2868 8.21972 13.365 8.34259 14.7442H11.313C11.399 13.7981 11.9703 12.9933 12.7751 12.5817L12.7782 4.91465C12.7782 4.37095 12.3389 3.93169 11.7952 3.93169H2.9486ZM13.7611 10.8124V12.2991C13.841 12.293 13.9239 12.2868 14.0069 12.2868C15.4168 12.2868 16.5749 13.365 16.6977 14.7442H16.71C17.2537 14.7442 17.693 14.305 17.693 13.7613V10.8124H13.7611ZM17.693 9.82944V8.96628C17.693 8.70518 17.5885 8.45637 17.4042 8.27207L16.3015 7.16931C16.1172 6.98501 15.8684 6.88057 15.6073 6.88057H13.7611V9.82944H17.693ZM3.04997 15.7272H2.9486C1.86427 15.7272 0.982681 14.8456 0.982681 13.7613V4.91465C0.982681 3.83032 1.86427 2.94873 2.9486 2.94873H11.7952C12.8796 2.94873 13.7611 3.83032 13.7611 4.91465V5.89761H15.6073C16.1295 5.89761 16.6302 6.10341 16.9988 6.47202L18.1015 7.57478C18.4701 7.94339 18.6759 8.44409 18.6759 8.96628V13.7613C18.6759 14.8456 17.7943 15.7272 16.71 15.7272H16.6087C16.2892 16.8607 15.2448 17.6931 14.0069 17.6931C12.769 17.6931 11.7276 16.8607 11.4051 15.7272H8.2535C7.93404 16.8607 6.88965 17.6931 5.65174 17.6931C4.41382 17.6931 3.3725 16.8607 3.04997 15.7272ZM5.65174 16.7102C6.6009 16.7102 7.37191 15.9391 7.37191 14.99C7.37191 14.0408 6.6009 13.2698 5.65174 13.2698C4.70257 13.2698 3.93156 14.0408 3.93156 14.99C3.93156 15.9391 4.70257 16.7102 5.65174 16.7102ZM14.0069 16.7102C14.9561 16.7102 15.7271 15.9391 15.7271 14.99C15.7271 14.0408 14.9561 13.2698 14.0069 13.2698C13.0577 13.2698 12.2867 14.0408 12.2867 14.99C12.2867 15.9391 13.0577 16.7102 14.0069 16.7102Z" fill="white"/>
</svg>
