<svg width="16" height="16" viewBox="0 0 16 16" fill="none" xmlns="http://www.w3.org/2000/svg">
<path d="M5.59999 4.8001C5.59999 3.4751 6.67499 2.4001 7.99999 2.4001C9.32499 2.4001 10.4 3.4751 10.4 4.8001C10.4 6.1251 9.32499 7.2001 7.99999 7.2001C6.67499 7.2001 5.59999 6.1251 5.59999 4.8001ZM11.2 4.8001C11.2 3.0326 9.76749 1.6001 7.99999 1.6001C6.23249 1.6001 4.79999 3.0326 4.79999 4.8001C4.79999 6.5676 6.23249 8.0001 7.99999 8.0001C9.76749 8.0001 11.2 6.5676 11.2 4.8001ZM3.19999 13.6001C3.19999 11.6126 4.81249 10.0001 6.79999 10.0001H9.19999C11.1875 10.0001 12.8 11.6126 12.8 13.6001V14.0001C12.8 14.2201 12.98 14.4001 13.2 14.4001C13.42 14.4001 13.6 14.2201 13.6 14.0001V13.6001C13.6 11.1701 11.63 9.2001 9.19999 9.2001H6.79999C4.36999 9.2001 2.39999 11.1701 2.39999 13.6001V14.0001C2.39999 14.2201 2.57999 14.4001 2.79999 14.4001C3.01999 14.4001 3.19999 14.2201 3.19999 14.0001V13.6001Z" fill="#1D1D1F"/>
</svg>
