<svg width="20" height="20" viewBox="0 0 20 20" fill="none" xmlns="http://www.w3.org/2000/svg">
<rect width="20" height="20" rx="2" fill="#EF4343" fill-opacity="0.1"/>
<path d="M7.95213 7.52329C7.95213 5.02471 9.97684 3 12.4754 3C13.2347 3 13.9482 3.18578 14.5782 3.51695C14.6994 3.58157 14.7828 3.69734 14.8044 3.83466C14.8259 3.97197 14.7801 4.10659 14.6832 4.20352L12.2627 6.62402V7.73869H13.3774L15.7979 5.31819C15.8948 5.22126 16.0321 5.17549 16.1668 5.19703C16.3014 5.21857 16.4198 5.30203 16.4845 5.42319C16.8156 6.05053 17.0014 6.76672 17.0014 7.52599C17.0014 10.0246 14.9767 12.0493 12.4781 12.0493C11.945 12.0493 11.4335 11.9577 10.9569 11.7881L6.30705 16.4326C5.55048 17.1891 4.32272 17.1891 3.56615 16.4326C2.80957 15.676 2.80957 14.4482 3.56615 13.6917L8.2133 9.04452C8.04367 8.56796 7.95213 8.0564 7.95213 7.52329ZM12.4754 3.86158C10.4534 3.86158 8.81371 5.50127 8.81371 7.52329C8.81371 8.04024 8.92141 8.53296 9.11257 8.97721C9.18257 9.13876 9.14757 9.32723 9.02103 9.45377L4.17464 14.3002C3.75462 14.7202 3.75462 15.4014 4.17464 15.8241C4.59466 16.2468 5.27585 16.2441 5.69856 15.8241L10.5449 10.975C10.6688 10.8511 10.8573 10.8135 11.0215 10.8835C11.4658 11.0773 11.9585 11.1823 12.4754 11.1823C14.4974 11.1823 16.1371 9.54262 16.1371 7.5206C16.1371 7.11943 16.0725 6.73441 15.9541 6.37362L13.8566 8.47103C13.7759 8.55181 13.6655 8.59758 13.5524 8.59758H11.8292C11.5923 8.59758 11.3984 8.40372 11.3984 8.16679V6.44363C11.3984 6.33054 11.4442 6.22015 11.525 6.13938L13.6224 4.04197C13.2616 3.9262 12.8766 3.86158 12.4754 3.86158Z" fill="#EF4343"/>
</svg>
